<?xml version="1.0" encoding="UTF-8" standalone="no"?>
<!DOCTYPE svg PUBLIC "-//W3C//DTD SVG 1.1//EN" "http://www.w3.org/Graphics/SVG/1.1/DTD/svg11.dtd">
<svg version="1.1" xmlns="http://www.w3.org/2000/svg" xmlns:xlink="http://www.w3.org/1999/xlink" preserveAspectRatio="xMidYMid meet" viewBox="0 0 640 400" width="640" height="400"><defs><path d="M0 1611.52L924 1611.52L924 810.41L0 810.41L0 1611.52Z" id="h2z0Uf3B8g"></path><path d="M241.9 1153.75C239.1 1153.75 236.25 1154.98 234.4 1157.06C232.27 1159.44 231.4 1162.97 232.16 1166.06C232.32 1166.72 232.58 1167.34 232.91 1167.93C242.46 1167.6 250.91 1162.68 255.9 1155.04C254.3 1155.5 252.59 1155.68 250.87 1155.53C249.22 1155.4 247.73 1154.97 246.28 1154.57C245.17 1154.25 244.11 1153.96 243.09 1153.82C242.7 1153.77 242.3 1153.75 241.9 1153.75M238.14 1172.65C238.19 1172.68 238.24 1172.7 238.3 1172.73C241.05 1174.09 244.44 1174.32 247.35 1173.34C251.44 1171.97 255.04 1168.12 256.97 1163.04C257.13 1162.61 257.28 1162.18 257.42 1161.74C252.48 1167.37 245.73 1171.26 238.14 1172.65M243.58 1179.22C240.96 1179.22 238.33 1178.63 235.96 1177.45C233.72 1176.35 231.77 1174.87 230.25 1173.17C215.01 1172.46 202.2 1161.82 198.79 1146.81C198.47 1145.39 199.36 1143.98 200.78 1143.66C202.2 1143.33 203.61 1144.22 203.93 1145.64C206.55 1157.18 215.76 1165.66 227.1 1167.55C227.08 1167.48 227.06 1167.4 227.04 1167.33C225.86 1162.52 227.17 1157.24 230.47 1153.55C233.77 1149.86 238.86 1147.96 243.77 1148.6C245.17 1148.78 246.46 1149.14 247.71 1149.5C248.97 1149.85 250.17 1150.19 251.31 1150.28C254.97 1150.59 258.79 1148.39 259.99 1145.27C260.49 1143.99 261.9 1143.3 263.22 1143.7C264.54 1144.11 265.32 1145.46 265.02 1146.81C264.88 1147.4 264.73 1147.99 264.57 1148.57C264.36 1153.96 263.91 1159.6 261.9 1164.91C259.37 1171.55 254.68 1176.44 249.02 1178.34C247.27 1178.93 245.43 1179.22 243.58 1179.22" id="a4GXohTTIC"></path><path d="M262.81 1136.82C261.54 1136.82 260.43 1135.9 260.22 1134.61C259.33 1129.11 256.85 1124.02 253.07 1119.89C252.96 1119.77 252.88 1119.69 252.8 1119.6C252.79 1119.6 252.75 1119.55 252.69 1119.48C240.28 1107.08 233.39 1100.19 232.02 1098.82C231.98 1098.78 231.82 1098.79 231.8 1098.81C229.72 1100.89 213.08 1117.53 211 1119.61C210.93 1119.69 210.85 1119.78 210.77 1119.86C206.96 1124.02 204.49 1129.11 203.59 1134.61C203.36 1136.05 202.01 1137.02 200.57 1136.79C199.14 1136.56 198.16 1135.2 198.39 1133.77C199.45 1127.25 202.38 1121.22 206.86 1116.33C206.94 1116.24 207.05 1116.13 207.15 1116.01C207.17 1116 207.28 1115.88 207.29 1115.86C207.32 1115.84 207.34 1115.81 207.37 1115.79C209.44 1113.72 226 1097.16 228.07 1095.09C229.09 1094.06 230.45 1093.5 231.91 1093.5C233.36 1093.5 234.72 1094.06 235.75 1095.09C237.82 1097.16 254.37 1113.72 256.44 1115.79C256.47 1115.81 256.49 1115.84 256.51 1115.86C256.53 1115.88 256.63 1115.99 256.65 1116C256.76 1116.12 256.87 1116.24 256.98 1116.36C261.43 1121.22 264.36 1127.25 265.42 1133.77C265.65 1135.2 264.67 1136.56 263.24 1136.79C263.1 1136.81 262.95 1136.82 262.81 1136.82" id="be3szXTTe"></path><path d="M330.76 1129.77L330.76 1140.02L306.5 1140.02C306.5 1133.87 306.5 1130.45 306.5 1129.77C306.5 1128.12 306.83 1126.54 307.46 1125.08C308.1 1123.61 308.98 1122.31 310.06 1121.2C311.15 1120.09 312.44 1119.2 313.91 1118.56C316.82 1117.29 320.37 1117.29 323.29 1118.56C324.75 1119.2 326.06 1120.09 327.17 1121.2C328.28 1122.31 329.17 1123.62 329.8 1125.08C330.44 1126.54 330.76 1128.12 330.76 1129.77M331.09 1117.28C329.51 1115.69 327.62 1114.41 325.48 1113.48C323.33 1112.55 321.02 1112.07 318.6 1112.07C316.18 1112.07 313.86 1112.55 311.72 1113.48C309.58 1114.41 307.69 1115.69 306.1 1117.28C304.51 1118.86 303.25 1120.75 302.34 1122.9C301.43 1125.04 300.97 1127.36 300.97 1129.77C300.97 1132.6 300.97 1155.19 300.97 1158.01C300.97 1158.78 301.24 1159.44 301.78 1159.97C302.31 1160.51 302.97 1160.78 303.74 1160.78C304.51 1160.78 305.17 1160.51 305.7 1159.97C306.23 1159.44 306.5 1158.78 306.5 1158.01C306.5 1157.18 306.5 1153.03 306.5 1145.55L330.76 1145.55C330.76 1153.03 330.76 1157.18 330.76 1158.01C330.76 1158.78 331.03 1159.44 331.57 1159.97C332.1 1160.51 332.76 1160.78 333.53 1160.78C334.3 1160.78 334.96 1160.51 335.49 1159.97C336.02 1159.44 336.3 1158.78 336.3 1158.01C336.3 1155.19 336.3 1132.6 336.3 1129.77C336.3 1127.35 335.82 1125.04 334.89 1122.89C333.96 1120.75 332.68 1118.86 331.09 1117.28" id="agqVN655F"></path><path d="M359.4 1129.58C361.15 1129.58 362.82 1129.92 364.35 1130.58C365.89 1131.24 367.26 1132.17 368.42 1133.32C369.58 1134.48 370.5 1135.85 371.16 1137.39C371.82 1138.92 372.16 1140.58 372.16 1142.33C372.06 1144.18 371.67 1145.91 370.98 1147.47C370.29 1149.04 369.37 1150.4 368.23 1151.54C367.1 1152.67 365.76 1153.57 364.24 1154.21C361.17 1155.5 357.48 1155.48 354.41 1154.17C352.85 1153.51 351.47 1152.59 350.31 1151.43C349.16 1150.27 348.23 1148.89 347.57 1147.33C346.91 1145.77 346.57 1144.09 346.57 1142.34C346.57 1140.59 346.91 1138.92 347.57 1137.39C348.23 1135.85 349.15 1134.48 350.31 1133.32C351.47 1132.17 352.85 1131.24 354.41 1130.58C355.97 1129.92 357.65 1129.58 359.4 1129.58M372.3 1129.28C370.64 1127.67 368.67 1126.39 366.46 1125.49C364.24 1124.58 361.87 1124.12 359.4 1124.12C356.84 1124.12 354.41 1124.61 352.19 1125.57C349.98 1126.52 348.02 1127.85 346.39 1129.51C344.75 1131.17 343.44 1133.13 342.48 1135.31C341.52 1137.5 341.04 1139.87 341.04 1142.34C341.04 1144.86 341.54 1147.26 342.52 1149.48C343.5 1151.69 344.84 1153.65 346.5 1155.32C348.16 1156.98 350.11 1158.31 352.3 1159.29C354.49 1160.28 356.83 1160.78 359.25 1160.78C359.26 1160.78 359.27 1160.78 359.27 1160.78C362.1 1160.68 364.71 1159.95 367.03 1158.61C368.96 1157.5 370.68 1156.2 372.16 1154.75C372.16 1156.41 372.16 1169.73 372.16 1171.39C372.16 1172.16 372.43 1172.82 372.96 1173.35C373.5 1173.89 374.16 1174.16 374.93 1174.16C375.69 1174.16 376.36 1173.89 376.89 1173.35C377.42 1172.82 377.69 1172.16 377.69 1171.39C377.69 1168.49 377.69 1145.24 377.69 1142.34C377.69 1139.73 377.21 1137.27 376.25 1135.05C375.29 1132.84 373.96 1130.9 372.3 1129.28" id="fwf8BvC4C"></path><path d="M417.73 1123.9C416.96 1123.9 416.3 1124.17 415.77 1124.71C415.23 1125.24 414.96 1125.9 414.96 1126.67C414.96 1128.25 414.96 1140.9 414.96 1142.49C414.96 1144.24 414.63 1145.9 413.97 1147.44C413.3 1148.98 412.38 1150.34 411.22 1151.5C410.06 1152.66 408.69 1153.59 407.15 1154.25C404.09 1155.57 400.32 1155.57 397.25 1154.25C395.72 1153.59 394.35 1152.66 393.19 1151.5C392.03 1150.35 391.11 1148.98 390.44 1147.44C389.78 1145.9 389.45 1144.24 389.45 1142.49C389.45 1140.9 389.45 1128.25 389.45 1126.67C389.45 1125.9 389.18 1125.24 388.64 1124.71C388.11 1124.17 387.45 1123.9 386.68 1123.9C385.91 1123.9 385.25 1124.17 384.72 1124.71C384.18 1125.24 383.91 1125.9 383.91 1126.67C383.91 1128.25 383.91 1140.9 383.91 1142.49C383.91 1145.01 384.4 1147.41 385.36 1149.62C386.31 1151.84 387.63 1153.79 389.26 1155.43C390.9 1157.06 392.85 1158.38 395.07 1159.33C397.28 1160.29 399.68 1160.78 402.2 1160.78C404.72 1160.78 407.12 1160.29 409.34 1159.33C411.55 1158.38 413.51 1157.06 415.14 1155.43C416.78 1153.79 418.09 1151.84 419.05 1149.62C420.01 1147.4 420.5 1145 420.5 1142.49C420.5 1140.9 420.5 1128.25 420.5 1126.67C420.5 1125.9 420.22 1125.24 419.69 1124.71C419.16 1124.17 418.5 1123.9 417.73 1123.9" id="c18rT48B2H"></path><path d="M457.32 1142.46C457.22 1144.32 456.83 1146.04 456.14 1147.58C455.46 1149.12 454.52 1150.47 453.36 1151.61C452.2 1152.75 450.84 1153.65 449.33 1154.28C446.26 1155.58 442.56 1155.55 439.54 1154.25C438 1153.59 436.63 1152.66 435.47 1151.5C434.31 1150.34 433.39 1148.98 432.73 1147.44C432.07 1145.9 431.73 1144.24 431.73 1142.49C431.73 1140.73 432.07 1139.05 432.73 1137.5C433.39 1135.94 434.31 1134.56 435.47 1133.4C436.63 1132.24 438 1131.32 439.54 1130.65C441.07 1129.99 442.74 1129.66 444.49 1129.66C446.24 1129.66 447.92 1129.99 449.48 1130.65C451.04 1131.32 452.42 1132.24 453.58 1133.4C454.74 1134.56 455.66 1135.94 456.32 1137.5C456.98 1139.06 457.32 1140.74 457.32 1142.46M457.39 1129.51C455.73 1127.85 453.78 1126.51 451.6 1125.53C449.4 1124.55 447.06 1124.05 444.64 1124.05C444.63 1124.05 444.62 1124.05 444.62 1124.05C442 1124.15 439.55 1124.7 437.31 1125.68C435.08 1126.66 433.11 1127.98 431.47 1129.62C429.84 1131.26 428.53 1133.2 427.6 1135.39C426.67 1137.58 426.2 1139.97 426.2 1142.49C426.2 1145.1 426.68 1147.56 427.64 1149.77C428.6 1151.98 429.93 1153.93 431.59 1155.54C433.25 1157.15 435.2 1158.43 437.4 1159.34C439.59 1160.24 441.97 1160.7 444.49 1160.7C447.22 1160.7 449.8 1160.02 452.15 1158.68C454.1 1157.57 455.83 1156.26 457.32 1154.77C457.32 1155.1 457.32 1157.75 457.32 1158.09C457.32 1158.85 457.59 1159.51 458.12 1160.05C458.66 1160.58 459.32 1160.85 460.09 1160.85C460.85 1160.85 461.51 1160.58 462.05 1160.05C462.58 1159.51 462.85 1158.85 462.85 1158.09C462.85 1156.53 462.85 1144.05 462.85 1142.49C462.85 1139.97 462.35 1137.57 461.37 1135.35C460.39 1133.13 459.05 1131.17 457.39 1129.51" id="a1ylChqcg7"></path><path d="M496.06 1128.29C495.66 1129.19 495.12 1129.98 494.43 1130.65C493.73 1131.32 492.91 1131.86 491.98 1132.26C491.05 1132.65 490.06 1132.87 489.06 1132.92C488.12 1132.92 483.37 1132.92 474.83 1132.92L474.83 1117.68C483.24 1117.68 487.91 1117.68 488.84 1117.68C489.86 1117.68 490.85 1117.89 491.79 1118.3C492.75 1118.72 493.6 1119.29 494.32 1119.99C495.03 1120.68 495.61 1121.5 496.02 1122.43C496.44 1123.35 496.65 1124.33 496.65 1125.34C496.65 1126.4 496.45 1127.39 496.06 1128.29M488.84 1155.24L474.83 1155.24L474.83 1138.75C483.19 1138.74 487.83 1138.74 488.76 1138.74C491.3 1139.16 493.27 1140.18 494.62 1141.76C495.96 1143.34 496.65 1145.13 496.65 1147.07C496.65 1148.13 496.44 1149.18 496.02 1150.18C495.6 1151.18 495.03 1152.06 494.34 1152.81C493.64 1153.55 492.81 1154.15 491.86 1154.59C490.92 1155.02 489.9 1155.24 488.84 1155.24M496.75 1135.91C498.23 1134.79 499.45 1133.35 500.39 1131.62C501.43 1129.69 501.96 1127.55 501.96 1125.26C501.96 1123.48 501.61 1121.77 500.92 1120.19C500.24 1118.62 499.28 1117.22 498.09 1116.02C496.89 1114.82 495.49 1113.87 493.91 1113.18C492.33 1112.5 490.62 1112.15 488.84 1112.15C487.16 1112.15 473.74 1112.15 472.06 1112.15C471.29 1112.15 470.63 1112.42 470.1 1112.95C469.57 1113.49 469.29 1114.14 469.29 1114.91C469.29 1119.22 469.29 1153.7 469.29 1158.01C469.29 1158.78 469.57 1159.44 470.1 1159.97C470.63 1160.51 471.29 1160.78 472.06 1160.78C473.74 1160.78 487.18 1160.78 488.86 1160.78C490.68 1160.73 492.43 1160.34 494.06 1159.63C495.69 1158.92 497.13 1157.92 498.35 1156.68C499.57 1155.44 500.53 1153.98 501.22 1152.36C501.91 1150.73 502.25 1148.95 502.25 1147.07C502.25 1144.69 501.69 1142.44 500.57 1140.41C499.57 1138.59 498.29 1137.08 496.75 1135.91" id="a6iDxyCFu9"></path><path d="M538.93 1142.46C538.84 1144.32 538.44 1146.04 537.75 1147.58C537.07 1149.12 536.13 1150.47 534.97 1151.61C533.81 1152.75 532.46 1153.65 530.94 1154.28C527.87 1155.58 524.17 1155.55 521.15 1154.25C519.61 1153.59 518.24 1152.66 517.08 1151.5C515.92 1150.34 515 1148.98 514.34 1147.44C513.68 1145.9 513.34 1144.24 513.34 1142.49C513.34 1140.73 513.68 1139.05 514.34 1137.5C515 1135.94 515.92 1134.56 517.08 1133.4C518.24 1132.24 519.61 1131.32 521.15 1130.65C522.68 1129.99 524.35 1129.66 526.1 1129.66C527.85 1129.66 529.53 1129.99 531.09 1130.65C532.65 1131.32 534.03 1132.24 535.19 1133.4C536.35 1134.56 537.27 1135.94 537.93 1137.5C538.6 1139.06 538.93 1140.74 538.93 1142.46M539 1129.51C537.34 1127.85 535.39 1126.51 533.21 1125.53C531.01 1124.55 528.67 1124.05 526.25 1124.05C526.25 1124.05 526.23 1124.05 526.23 1124.05C523.62 1124.15 521.16 1124.7 518.92 1125.68C516.69 1126.66 514.72 1127.98 513.09 1129.62C511.45 1131.26 510.14 1133.2 509.22 1135.39C508.28 1137.58 507.81 1139.97 507.81 1142.49C507.81 1145.1 508.29 1147.56 509.25 1149.77C510.21 1151.98 511.54 1153.93 513.2 1155.54C514.86 1157.15 516.82 1158.43 519.01 1159.34C521.2 1160.24 523.58 1160.7 526.1 1160.7C528.83 1160.7 531.41 1160.02 533.76 1158.68C535.71 1157.57 537.45 1156.26 538.93 1154.77C538.93 1155.1 538.93 1157.75 538.93 1158.09C538.93 1158.85 539.2 1159.51 539.74 1160.05C540.27 1160.58 540.93 1160.85 541.7 1160.85C542.47 1160.85 543.13 1160.58 543.66 1160.05C544.19 1159.51 544.46 1158.85 544.46 1158.09C544.46 1156.53 544.46 1144.05 544.46 1142.49C544.46 1139.97 543.97 1137.57 542.98 1135.35C542 1133.13 540.66 1131.17 539 1129.51" id="a1VRJrKcU2"></path><path d="M577 1143.19C576.07 1142.26 574.97 1141.52 573.71 1140.98C572.45 1140.44 571.1 1140.16 569.71 1140.16C568.85 1140.16 561.93 1140.16 561.07 1140.16C559.6 1140.16 558.38 1139.65 557.34 1138.6C556.28 1137.55 555.77 1136.33 555.77 1134.87C555.77 1133.41 556.28 1132.19 557.34 1131.14C558.39 1130.09 559.61 1129.55 561.07 1129.51C562.57 1129.51 574.64 1129.51 576.15 1129.51C576.91 1129.51 577.57 1129.24 578.11 1128.7C578.64 1128.17 578.91 1127.51 578.91 1126.74C578.91 1125.97 578.64 1125.31 578.11 1124.78C577.57 1124.25 576.91 1123.97 576.15 1123.97C574.64 1123.97 562.57 1123.97 561.07 1123.97C559.58 1123.97 558.16 1124.26 556.85 1124.83C555.54 1125.39 554.38 1126.17 553.41 1127.15C552.44 1128.12 551.66 1129.29 551.09 1130.62C550.53 1131.95 550.24 1133.38 550.24 1134.87C550.24 1136.36 550.53 1137.78 551.09 1139.09C551.66 1140.4 552.44 1141.55 553.41 1142.53C554.39 1143.5 555.54 1144.28 556.85 1144.84C558.16 1145.41 559.58 1145.7 561.07 1145.7C561.93 1145.7 568.85 1145.7 569.71 1145.7C571.02 1145.7 572.12 1146.16 573.07 1147.11C574.03 1148.06 574.49 1149.16 574.49 1150.47C574.49 1151.78 574.03 1152.88 573.07 1153.83C572.12 1154.78 571.02 1155.24 569.71 1155.24C568.12 1155.24 555.34 1155.24 553.75 1155.24C552.98 1155.24 552.32 1155.52 551.78 1156.05C551.25 1156.58 550.98 1157.24 550.98 1158.01C550.98 1158.78 551.25 1159.44 551.78 1159.97C552.32 1160.51 552.98 1160.78 553.75 1160.78C555.34 1160.78 568.12 1160.78 569.71 1160.78C571.1 1160.78 572.45 1160.5 573.71 1159.96C574.97 1159.42 576.07 1158.68 577 1157.76C577.92 1156.83 578.67 1155.72 579.21 1154.46C579.75 1153.2 580.02 1151.86 580.02 1150.47C580.02 1149.08 579.75 1147.74 579.21 1146.48C578.67 1145.22 577.92 1144.11 577 1143.19" id="ao6J1fYzh"></path><path d="M616.86 1151.27C616.22 1150.8 615.52 1150.61 614.79 1150.7C614.06 1150.79 613.45 1151.1 612.99 1151.61C611.86 1152.75 610.52 1153.65 609.01 1154.28C605.98 1155.56 602.2 1155.57 599.14 1154.25C597.6 1153.59 596.23 1152.66 595.07 1151.5C593.91 1150.34 592.99 1148.98 592.33 1147.44C591.67 1145.9 591.33 1144.24 591.33 1142.49C591.33 1141.61 591.33 1137.21 591.33 1129.29C600.85 1129.29 606.14 1129.29 607.19 1129.29C608.1 1129.29 608.85 1129.02 609.41 1128.49C609.97 1127.96 610.26 1127.29 610.26 1126.52C610.26 1125.75 609.97 1125.08 609.41 1124.55C608.85 1124.02 608.1 1123.75 607.19 1123.75C606.14 1123.75 600.85 1123.75 591.33 1123.75C591.33 1118.36 591.33 1115.36 591.33 1114.77C591.33 1114 591.06 1113.34 590.53 1112.8C589.99 1112.27 589.33 1112 588.57 1112C587.8 1112 587.14 1112.27 586.6 1112.8C586.07 1113.34 585.8 1114 585.8 1114.77C585.8 1117.54 585.8 1139.71 585.8 1142.49C585.8 1145.01 586.28 1147.41 587.24 1149.62C588.2 1151.84 589.51 1153.79 591.15 1155.43C592.79 1157.06 594.74 1158.38 596.95 1159.33C599.17 1160.29 601.57 1160.78 604.09 1160.78C606.66 1160.78 609.11 1160.28 611.37 1159.3C613.64 1158.31 615.64 1156.92 617.35 1155.09C617.76 1154.44 617.91 1153.76 617.79 1153.05C617.67 1152.37 617.38 1151.78 616.86 1151.27" id="d2h2Skrull"></path><path d="M652.92 1142.46C652.83 1144.32 652.43 1146.04 651.74 1147.58C651.06 1149.12 650.12 1150.47 648.96 1151.61C647.8 1152.75 646.45 1153.65 644.93 1154.28C641.86 1155.58 638.16 1155.55 635.14 1154.25C633.6 1153.59 632.23 1152.66 631.07 1151.5C629.91 1150.34 628.99 1148.98 628.33 1147.44C627.67 1145.9 627.33 1144.24 627.33 1142.49C627.33 1140.73 627.67 1139.05 628.33 1137.5C628.99 1135.94 629.91 1134.56 631.07 1133.4C632.23 1132.24 633.6 1131.32 635.14 1130.65C636.67 1129.99 638.34 1129.66 640.09 1129.66C641.84 1129.66 643.52 1129.99 645.08 1130.65C646.64 1131.32 648.02 1132.24 649.18 1133.4C650.34 1134.56 651.26 1135.94 651.92 1137.5C652.59 1139.06 652.92 1140.74 652.92 1142.46M656.97 1135.35C655.99 1133.13 654.65 1131.17 652.99 1129.51C651.33 1127.85 649.38 1126.51 647.2 1125.53C645 1124.55 642.66 1124.05 640.24 1124.05C640.24 1124.05 640.22 1124.05 640.22 1124.05C637.61 1124.15 635.15 1124.7 632.91 1125.68C630.68 1126.66 628.71 1127.98 627.08 1129.62C625.44 1131.26 624.14 1133.2 623.21 1135.39C622.27 1137.58 621.8 1139.97 621.8 1142.49C621.8 1145.1 622.28 1147.56 623.24 1149.77C624.2 1151.98 625.53 1153.93 627.19 1155.54C628.85 1157.15 630.81 1158.43 633 1159.34C635.19 1160.24 637.58 1160.7 640.09 1160.7C642.82 1160.7 645.4 1160.02 647.75 1158.68C649.7 1157.57 651.44 1156.26 652.92 1154.77C652.92 1155.1 652.92 1157.75 652.92 1158.09C652.92 1158.85 653.19 1159.51 653.73 1160.05C654.26 1160.58 654.92 1160.85 655.69 1160.85C656.46 1160.85 657.12 1160.58 657.65 1160.05C658.18 1159.51 658.45 1158.85 658.45 1158.09C658.45 1156.53 658.45 1144.05 658.45 1142.49C658.45 1139.97 657.96 1137.57 656.97 1135.35" id="bhXMlCOlm"></path><path d="M566.08 1128.25C565.57 1128.25 565.06 1128.05 564.67 1127.66C563.8 1126.8 556.88 1119.87 556.01 1119.01C555.23 1118.23 555.23 1116.96 556.01 1116.18C556.79 1115.4 558.06 1115.4 558.84 1116.18C559.32 1116.67 561.74 1119.08 566.08 1123.42C570.43 1119.08 572.84 1116.67 573.32 1116.18C574.1 1115.4 575.37 1115.4 576.15 1116.18C576.93 1116.96 576.93 1118.23 576.15 1119.01C575.28 1119.87 568.36 1126.8 567.49 1127.66C567.1 1128.05 566.59 1128.25 566.08 1128.25" id="a3C3y710"></path><path d="M467.28 1433.1C464.67 1433.1 462.02 1434.25 460.29 1436.18C458.31 1438.4 457.49 1441.69 458.2 1444.57C458.35 1445.18 458.6 1445.76 458.91 1446.31C467.8 1446.01 475.68 1441.42 480.33 1434.31C478.83 1434.73 477.24 1434.9 475.64 1434.76C474.1 1434.64 472.71 1434.24 471.36 1433.86C470.32 1433.57 469.34 1433.29 468.39 1433.17C468.02 1433.12 467.65 1433.1 467.28 1433.1M463.77 1450.71C463.82 1450.74 463.87 1450.76 463.92 1450.78C466.49 1452.05 469.64 1452.26 472.36 1451.36C476.17 1450.08 479.52 1446.49 481.32 1441.75C481.47 1441.36 481.61 1440.95 481.74 1440.55C477.13 1445.79 470.85 1449.42 463.77 1450.71M468.85 1456.83C466.4 1456.83 463.96 1456.28 461.75 1455.19C459.66 1454.15 457.84 1452.78 456.43 1451.2C442.23 1450.53 430.29 1440.62 427.12 1426.63C426.82 1425.31 427.64 1423.99 428.97 1423.7C430.29 1423.39 431.6 1424.22 431.9 1425.55C434.35 1436.3 442.92 1444.2 453.49 1445.96C453.47 1445.89 453.46 1445.82 453.44 1445.75C452.33 1441.27 453.55 1436.35 456.63 1432.91C459.7 1429.47 464.45 1427.71 469.03 1428.3C470.33 1428.47 471.53 1428.81 472.69 1429.14C473.87 1429.47 474.98 1429.78 476.05 1429.87C479.46 1430.16 483.01 1428.1 484.14 1425.2C484.6 1424 485.91 1423.36 487.14 1423.74C488.37 1424.12 489.1 1425.38 488.82 1426.63C488.69 1427.19 488.55 1427.73 488.4 1428.27C488.21 1433.3 487.79 1438.55 485.91 1443.5C483.56 1449.68 479.19 1454.24 473.92 1456.01C472.28 1456.56 470.56 1456.83 468.85 1456.83" id="a1CblNMnz"></path><path d="M486.77 1417.33C485.58 1417.33 484.54 1416.47 484.35 1415.27C483.52 1410.14 481.21 1405.4 477.68 1401.55C477.58 1401.44 477.51 1401.36 477.44 1401.29C477.43 1401.28 477.39 1401.24 477.33 1401.17C465.77 1389.62 459.35 1383.2 458.07 1381.92C458.04 1381.88 457.89 1381.89 457.87 1381.91C455.93 1383.85 440.43 1399.35 438.49 1401.29C438.42 1401.37 438.35 1401.45 438.28 1401.53C434.72 1405.4 432.42 1410.14 431.59 1415.27C431.37 1416.6 430.11 1417.51 428.77 1417.3C427.43 1417.08 426.53 1415.82 426.74 1414.48C427.73 1408.41 430.46 1402.79 434.63 1398.23C434.71 1398.15 434.81 1398.04 434.91 1397.94C434.92 1397.92 435.02 1397.81 435.04 1397.8C435.06 1397.78 435.08 1397.75 435.11 1397.73C437.03 1395.8 452.46 1380.37 454.39 1378.44C455.34 1377.49 456.61 1376.96 457.97 1376.96C459.32 1376.96 460.59 1377.49 461.55 1378.45C463.47 1380.38 478.9 1395.8 480.83 1397.73C480.85 1397.75 480.88 1397.77 480.9 1397.8C480.91 1397.81 481.01 1397.92 481.02 1397.93C481.12 1398.04 481.23 1398.15 481.33 1398.26C485.48 1402.79 488.21 1408.41 489.19 1414.48C489.41 1415.82 488.5 1417.08 487.16 1417.3C487.03 1417.32 486.9 1417.33 486.77 1417.33" id="f7Zk3mOhe"></path><path d="M369.56 1481.89L369.56 1487.97L355.17 1487.97C355.17 1484.32 355.17 1482.29 355.17 1481.89C355.17 1480.91 355.36 1479.97 355.73 1479.1C356.11 1478.23 356.63 1477.46 357.28 1476.8C357.92 1476.14 358.69 1475.61 359.56 1475.23C361.29 1474.48 363.39 1474.48 365.13 1475.23C365.99 1475.61 366.77 1476.14 367.43 1476.8C368.09 1477.46 368.62 1478.23 368.99 1479.1C369.37 1479.97 369.56 1480.91 369.56 1481.89M369.76 1474.47C368.82 1473.53 367.7 1472.77 366.43 1472.22C365.15 1471.66 363.78 1471.38 362.34 1471.38C360.91 1471.38 359.53 1471.66 358.26 1472.22C356.99 1472.77 355.87 1473.53 354.93 1474.47C353.98 1475.41 353.23 1476.53 352.69 1477.81C352.16 1479.08 351.88 1480.45 351.88 1481.89C351.88 1483.56 351.88 1496.97 351.88 1498.65C351.88 1499.1 352.04 1499.49 352.36 1499.81C352.68 1500.13 353.07 1500.29 353.52 1500.29C353.98 1500.29 354.37 1500.13 354.69 1499.81C355.01 1499.49 355.17 1499.1 355.17 1498.65C355.17 1498.15 355.17 1495.69 355.17 1491.25L369.56 1491.25C369.56 1495.69 369.56 1498.15 369.56 1498.65C369.56 1499.1 369.72 1499.49 370.04 1499.81C370.36 1500.13 370.75 1500.29 371.21 1500.29C371.66 1500.29 372.05 1500.13 372.37 1499.81C372.69 1499.49 372.85 1499.1 372.85 1498.65C372.85 1496.97 372.85 1483.56 372.85 1481.89C372.85 1480.45 372.57 1479.08 372.01 1477.8C371.46 1476.53 370.7 1475.41 369.76 1474.47" id="a2CYiGCsnW"></path><path d="M386.56 1481.77C387.6 1481.77 388.59 1481.97 389.5 1482.37C390.41 1482.76 391.22 1483.31 391.91 1483.99C392.6 1484.68 393.15 1485.49 393.54 1486.41C393.93 1487.32 394.13 1488.3 394.13 1489.34C394.08 1490.44 393.84 1491.46 393.43 1492.39C393.02 1493.32 392.48 1494.13 391.8 1494.81C391.13 1495.48 390.33 1496.01 389.43 1496.39C387.61 1497.16 385.42 1497.14 383.6 1496.37C382.67 1495.98 381.85 1495.43 381.17 1494.74C380.48 1494.05 379.93 1493.23 379.54 1492.31C379.14 1491.38 378.95 1490.39 378.95 1489.35C378.95 1488.31 379.14 1487.32 379.54 1486.41C379.93 1485.49 380.48 1484.68 381.17 1483.99C381.85 1483.31 382.67 1482.76 383.6 1482.37C384.53 1481.97 385.52 1481.77 386.56 1481.77M394.22 1481.6C393.23 1480.64 392.06 1479.88 390.75 1479.34C389.43 1478.81 388.02 1478.53 386.56 1478.53C385.04 1478.53 383.6 1478.82 382.28 1479.39C380.97 1479.96 379.81 1480.75 378.84 1481.73C377.86 1482.72 377.09 1483.88 376.52 1485.17C375.95 1486.48 375.66 1487.88 375.66 1489.35C375.66 1490.84 375.96 1492.27 376.54 1493.58C377.12 1494.9 377.92 1496.06 378.9 1497.05C379.89 1498.03 381.05 1498.83 382.34 1499.41C383.65 1499.99 385.04 1500.29 386.47 1500.29C386.47 1500.29 386.48 1500.29 386.48 1500.29C388.16 1500.23 389.71 1499.8 391.09 1499C392.23 1498.34 393.26 1497.57 394.13 1496.71C394.13 1497.7 394.13 1505.6 394.13 1506.59C394.13 1507.04 394.29 1507.44 394.61 1507.75C394.93 1508.07 395.32 1508.23 395.78 1508.23C396.23 1508.23 396.62 1508.07 396.94 1507.75C397.26 1507.44 397.42 1507.05 397.42 1506.59C397.42 1504.86 397.42 1491.07 397.42 1489.35C397.42 1487.79 397.13 1486.34 396.56 1485.02C395.99 1483.71 395.2 1482.55 394.22 1481.6" id="b1xweekDyC"></path><path d="M421.18 1478.4C420.72 1478.4 420.33 1478.56 420.01 1478.88C419.7 1479.2 419.54 1479.59 419.54 1480.04C419.54 1480.98 419.54 1488.49 419.54 1489.43C419.54 1490.47 419.34 1491.46 418.95 1492.37C418.55 1493.28 418 1494.1 417.32 1494.78C416.63 1495.47 415.82 1496.02 414.9 1496.41C413.08 1497.2 410.85 1497.2 409.03 1496.41C408.11 1496.02 407.3 1495.47 406.61 1494.78C405.93 1494.1 405.38 1493.28 404.98 1492.37C404.59 1491.46 404.39 1490.47 404.39 1489.43C404.39 1488.49 404.39 1480.98 404.39 1480.04C404.39 1479.59 404.23 1479.2 403.92 1478.88C403.6 1478.56 403.21 1478.4 402.75 1478.4C402.29 1478.4 401.9 1478.56 401.59 1478.88C401.27 1479.2 401.11 1479.59 401.11 1480.04C401.11 1480.98 401.11 1488.49 401.11 1489.43C401.11 1490.93 401.4 1492.35 401.97 1493.67C402.53 1494.98 403.31 1496.14 404.28 1497.11C405.26 1498.09 406.42 1498.86 407.73 1499.43C409.05 1500 410.47 1500.29 411.97 1500.29C413.46 1500.29 414.89 1500 416.2 1499.43C417.51 1498.86 418.67 1498.09 419.65 1497.11C420.62 1496.14 421.4 1494.98 421.96 1493.67C422.53 1492.35 422.82 1490.93 422.82 1489.43C422.82 1488.49 422.82 1480.98 422.82 1480.04C422.82 1479.59 422.66 1479.2 422.34 1478.88C422.03 1478.56 421.63 1478.4 421.18 1478.4" id="i8bMNwTzYE"></path><path d="M444.68 1489.42C444.62 1490.52 444.38 1491.54 443.98 1492.46C443.57 1493.37 443.01 1494.17 442.33 1494.85C441.64 1495.52 440.83 1496.06 439.94 1496.43C438.11 1497.2 435.92 1497.19 434.12 1496.41C433.21 1496.02 432.4 1495.47 431.71 1494.78C431.02 1494.1 430.47 1493.28 430.08 1492.37C429.69 1491.46 429.49 1490.47 429.49 1489.43C429.49 1488.39 429.69 1487.4 430.08 1486.47C430.47 1485.55 431.02 1484.73 431.71 1484.04C432.4 1483.35 433.21 1482.8 434.12 1482.41C435.03 1482.02 436.02 1481.82 437.06 1481.82C438.1 1481.82 439.1 1482.02 440.02 1482.41C440.95 1482.8 441.77 1483.35 442.46 1484.04C443.14 1484.73 443.69 1485.55 444.08 1486.47C444.48 1487.4 444.68 1488.39 444.68 1489.42M444.72 1481.73C443.73 1480.75 442.58 1479.95 441.28 1479.37C439.98 1478.79 438.59 1478.49 437.15 1478.49C437.15 1478.49 437.14 1478.49 437.14 1478.49C435.59 1478.55 434.13 1478.88 432.8 1479.46C431.47 1480.04 430.31 1480.83 429.34 1481.8C428.36 1482.77 427.59 1483.92 427.04 1485.22C426.49 1486.52 426.2 1487.94 426.2 1489.43C426.2 1490.99 426.49 1492.44 427.06 1493.76C427.63 1495.07 428.42 1496.22 429.41 1497.18C430.39 1498.14 431.55 1498.9 432.85 1499.43C434.15 1499.97 435.57 1500.25 437.06 1500.25C438.68 1500.25 440.21 1499.84 441.61 1499.05C442.77 1498.39 443.8 1497.61 444.68 1496.72C444.68 1496.92 444.68 1498.49 444.68 1498.69C444.68 1499.15 444.84 1499.54 445.15 1499.86C445.47 1500.17 445.86 1500.33 446.32 1500.33C446.78 1500.33 447.17 1500.17 447.48 1499.86C447.8 1499.54 447.96 1499.15 447.96 1498.69C447.96 1497.77 447.96 1490.36 447.96 1489.43C447.96 1487.94 447.67 1486.51 447.08 1485.19C446.5 1483.88 445.7 1482.72 444.72 1481.73" id="e1D6gNNMU"></path><path d="M467.67 1481.01C467.44 1481.54 467.11 1482.01 466.7 1482.41C466.29 1482.81 465.8 1483.13 465.25 1483.36C464.7 1483.6 464.11 1483.73 463.52 1483.75C462.95 1483.75 460.14 1483.75 455.07 1483.75L455.07 1474.71C460.06 1474.71 462.83 1474.71 463.39 1474.71C463.99 1474.71 464.58 1474.83 465.14 1475.08C465.7 1475.33 466.21 1475.66 466.64 1476.08C467.06 1476.49 467.4 1476.98 467.65 1477.53C467.89 1478.07 468.02 1478.65 468.02 1479.25C468.02 1479.88 467.9 1480.47 467.67 1481.01M463.39 1497.01L455.07 1497.01L455.07 1487.21C460.03 1487.21 462.79 1487.21 463.34 1487.21C464.84 1487.46 466.01 1488.06 466.81 1489C467.61 1489.94 468.02 1491 468.02 1492.15C468.02 1492.79 467.89 1493.41 467.64 1494C467.4 1494.59 467.06 1495.12 466.65 1495.56C466.24 1496 465.74 1496.35 465.18 1496.61C464.62 1496.87 464.02 1497.01 463.39 1497.01M468.08 1485.53C468.96 1484.86 469.69 1484.01 470.24 1482.99C470.86 1481.84 471.17 1480.57 471.17 1479.21C471.17 1478.15 470.96 1477.14 470.56 1476.2C470.15 1475.27 469.58 1474.43 468.87 1473.72C468.16 1473.01 467.33 1472.45 466.39 1472.04C465.46 1471.63 464.44 1471.43 463.39 1471.43C462.39 1471.43 454.42 1471.43 453.43 1471.43C452.97 1471.43 452.58 1471.59 452.26 1471.9C451.95 1472.22 451.78 1472.61 451.78 1473.07C451.78 1475.63 451.78 1496.09 451.78 1498.65C451.78 1499.1 451.95 1499.49 452.26 1499.81C452.58 1500.13 452.97 1500.29 453.43 1500.29C454.42 1500.29 462.4 1500.29 463.39 1500.29C464.48 1500.26 465.52 1500.03 466.48 1499.61C467.45 1499.18 468.3 1498.6 469.03 1497.86C469.75 1497.12 470.32 1496.26 470.73 1495.29C471.14 1494.32 471.35 1493.27 471.35 1492.15C471.35 1490.74 471.01 1489.41 470.35 1488.2C469.75 1487.12 468.99 1486.23 468.08 1485.53" id="a3d8Xmpc2R"></path><path d="M493.11 1489.42C493.06 1490.52 492.82 1491.54 492.42 1492.46C492.01 1493.37 491.45 1494.17 490.76 1494.85C490.08 1495.52 489.27 1496.06 488.37 1496.43C486.55 1497.2 484.35 1497.19 482.56 1496.41C481.65 1496.02 480.83 1495.47 480.15 1494.78C479.46 1494.1 478.91 1493.28 478.52 1492.37C478.13 1491.46 477.93 1490.47 477.93 1489.43C477.93 1488.39 478.13 1487.4 478.52 1486.47C478.91 1485.55 479.46 1484.73 480.15 1484.04C480.83 1483.35 481.65 1482.8 482.56 1482.41C483.47 1482.02 484.46 1481.82 485.5 1481.82C486.54 1481.82 487.53 1482.02 488.46 1482.41C489.39 1482.8 490.21 1483.35 490.89 1484.04C491.58 1484.73 492.13 1485.55 492.52 1486.47C492.91 1487.4 493.11 1488.39 493.11 1489.42M493.16 1481.73C492.17 1480.75 491.01 1479.95 489.72 1479.37C488.41 1478.79 487.02 1478.49 485.59 1478.49C485.58 1478.49 485.58 1478.49 485.58 1478.49C484.02 1478.55 482.57 1478.88 481.24 1479.46C479.91 1480.04 478.75 1480.83 477.78 1481.8C476.8 1482.77 476.03 1483.92 475.48 1485.22C474.92 1486.52 474.64 1487.94 474.64 1489.43C474.64 1490.99 474.93 1492.44 475.5 1493.76C476.07 1495.07 476.85 1496.22 477.84 1497.18C478.83 1498.14 479.99 1498.9 481.29 1499.43C482.59 1499.97 484.01 1500.25 485.5 1500.25C487.12 1500.25 488.65 1499.84 490.05 1499.05C491.2 1498.39 492.23 1497.61 493.11 1496.72C493.11 1496.92 493.11 1498.49 493.11 1498.69C493.11 1499.15 493.28 1499.54 493.59 1499.86C493.91 1500.17 494.3 1500.33 494.76 1500.33C495.21 1500.33 495.6 1500.17 495.92 1499.86C496.24 1499.54 496.4 1499.15 496.4 1498.69C496.4 1497.77 496.4 1490.36 496.4 1489.43C496.4 1487.94 496.1 1486.51 495.52 1485.19C494.94 1483.88 494.14 1482.72 493.16 1481.73" id="fKXqZR7WZ"></path><path d="M515.71 1489.85C515.16 1489.3 514.5 1488.86 513.76 1488.54C513.01 1488.22 512.21 1488.05 511.38 1488.05C510.87 1488.05 506.76 1488.05 506.25 1488.05C505.39 1488.05 504.66 1487.75 504.04 1487.13C503.42 1486.5 503.11 1485.78 503.11 1484.91C503.11 1484.05 503.42 1483.32 504.04 1482.7C504.66 1482.07 505.39 1481.76 506.25 1481.73C507.15 1481.73 514.31 1481.73 515.2 1481.73C515.66 1481.73 516.05 1481.57 516.37 1481.25C516.68 1480.94 516.84 1480.54 516.84 1480.09C516.84 1479.63 516.68 1479.24 516.37 1478.92C516.05 1478.61 515.66 1478.45 515.2 1478.45C514.31 1478.45 507.15 1478.45 506.25 1478.45C505.37 1478.45 504.53 1478.62 503.75 1478.95C502.97 1479.29 502.29 1479.75 501.71 1480.33C501.13 1480.91 500.67 1481.6 500.33 1482.39C500 1483.18 499.83 1484.03 499.83 1484.91C499.83 1485.8 500 1486.64 500.33 1487.42C500.67 1488.19 501.13 1488.88 501.71 1489.46C502.29 1490.04 502.97 1490.5 503.75 1490.83C504.52 1491.17 505.37 1491.34 506.25 1491.34C506.76 1491.34 510.87 1491.34 511.38 1491.34C512.16 1491.34 512.82 1491.61 513.38 1492.18C513.94 1492.74 514.22 1493.39 514.22 1494.17C514.22 1494.95 513.94 1495.6 513.38 1496.17C512.82 1496.73 512.16 1497 511.38 1497C510.44 1497 502.86 1497 501.91 1497C501.45 1497 501.06 1497.17 500.74 1497.48C500.43 1497.8 500.27 1498.19 500.27 1498.65C500.27 1499.1 500.43 1499.49 500.74 1499.81C501.06 1500.13 501.45 1500.29 501.91 1500.29C502.86 1500.29 510.44 1500.29 511.38 1500.29C512.21 1500.29 513.01 1500.13 513.76 1499.81C514.5 1499.49 515.16 1499.04 515.71 1498.5C516.26 1497.95 516.7 1497.29 517.02 1496.54C517.34 1495.79 517.5 1495 517.5 1494.17C517.5 1493.35 517.34 1492.55 517.02 1491.8C516.7 1491.05 516.26 1490.4 515.71 1489.85" id="eXml2FxYh"></path><path d="M539.37 1494.65C538.99 1494.37 538.57 1494.26 538.14 1494.31C537.7 1494.36 537.34 1494.55 537.07 1494.85C536.4 1495.52 535.6 1496.06 534.71 1496.43C532.91 1497.19 530.67 1497.2 528.85 1496.41C527.93 1496.02 527.12 1495.47 526.44 1494.78C525.75 1494.1 525.2 1493.29 524.81 1492.37C524.41 1491.46 524.22 1490.47 524.22 1489.43C524.22 1488.91 524.22 1486.3 524.22 1481.6C529.86 1481.6 533 1481.6 533.63 1481.6C534.17 1481.6 534.61 1481.44 534.94 1481.13C535.28 1480.81 535.45 1480.42 535.45 1479.96C535.45 1479.5 535.28 1479.1 534.94 1478.79C534.61 1478.47 534.17 1478.31 533.63 1478.31C533 1478.31 529.86 1478.31 524.22 1478.31C524.22 1475.11 524.22 1473.34 524.22 1472.98C524.22 1472.52 524.05 1472.13 523.74 1471.82C523.42 1471.5 523.03 1471.34 522.57 1471.34C522.12 1471.34 521.73 1471.5 521.41 1471.82C521.09 1472.13 520.93 1472.52 520.93 1472.98C520.93 1474.63 520.93 1487.79 520.93 1489.43C520.93 1490.93 521.22 1492.35 521.79 1493.67C522.35 1494.98 523.14 1496.14 524.11 1497.11C525.08 1498.09 526.24 1498.87 527.55 1499.43C528.87 1500 530.29 1500.29 531.79 1500.29C533.31 1500.29 534.77 1499.99 536.11 1499.41C537.46 1498.83 538.64 1498 539.66 1496.91C539.9 1496.53 539.99 1496.12 539.92 1495.7C539.85 1495.3 539.68 1494.95 539.37 1494.65" id="a18b97Pasg"></path><path d="M560.77 1489.42C560.71 1490.52 560.48 1491.54 560.07 1492.46C559.66 1493.37 559.11 1494.17 558.42 1494.85C557.73 1495.52 556.93 1496.06 556.03 1496.43C554.21 1497.2 552.01 1497.19 550.22 1496.41C549.3 1496.02 548.49 1495.47 547.8 1494.78C547.12 1494.1 546.57 1493.28 546.17 1492.37C545.78 1491.46 545.58 1490.47 545.58 1489.43C545.58 1488.39 545.78 1487.4 546.17 1486.47C546.57 1485.55 547.12 1484.73 547.8 1484.04C548.49 1483.35 549.3 1482.8 550.22 1482.41C551.13 1482.02 552.12 1481.82 553.15 1481.82C554.19 1481.82 555.19 1482.02 556.11 1482.41C557.04 1482.8 557.86 1483.35 558.55 1484.04C559.24 1484.73 559.78 1485.55 560.18 1486.47C560.57 1487.4 560.77 1488.39 560.77 1489.42M563.17 1485.19C562.59 1483.88 561.8 1482.72 560.81 1481.73C559.83 1480.75 558.67 1479.95 557.37 1479.37C556.07 1478.79 554.68 1478.49 553.24 1478.49C553.24 1478.49 553.23 1478.49 553.23 1478.49C551.68 1478.55 550.22 1478.88 548.89 1479.46C547.57 1480.04 546.4 1480.83 545.43 1481.8C544.46 1482.77 543.68 1483.92 543.13 1485.22C542.58 1486.52 542.3 1487.94 542.3 1489.43C542.3 1490.99 542.59 1492.44 543.16 1493.76C543.72 1495.07 544.51 1496.22 545.5 1497.18C546.49 1498.14 547.64 1498.9 548.94 1499.43C550.24 1499.97 551.66 1500.25 553.15 1500.25C554.78 1500.25 556.31 1499.84 557.7 1499.05C558.86 1498.39 559.89 1497.61 560.77 1496.72C560.77 1496.92 560.77 1498.49 560.77 1498.69C560.77 1499.15 560.93 1499.54 561.25 1499.86C561.56 1500.17 561.96 1500.33 562.41 1500.33C562.87 1500.33 563.26 1500.17 563.58 1499.86C563.89 1499.54 564.05 1499.15 564.05 1498.69C564.05 1497.77 564.05 1490.36 564.05 1489.43C564.05 1487.94 563.76 1486.51 563.17 1485.19" id="c4abRaivkT"></path><path d="M509.23 1480.98C508.92 1480.98 508.62 1480.87 508.39 1480.63C507.88 1480.12 503.77 1476.01 503.25 1475.5C502.79 1475.04 502.79 1474.28 503.25 1473.82C503.72 1473.36 504.47 1473.36 504.93 1473.82C505.22 1474.11 506.65 1475.54 509.23 1478.12C511.81 1475.54 513.24 1474.11 513.53 1473.82C513.99 1473.36 514.74 1473.36 515.2 1473.82C515.67 1474.28 515.67 1475.04 515.2 1475.5C514.69 1476.01 510.58 1480.12 510.07 1480.63C509.84 1480.87 509.53 1480.98 509.23 1480.98" id="d2v2XTjWqu"></path><path d="M346.12 185.85C338.81 185.85 331.37 189.07 326.51 194.5C320.96 200.72 318.67 209.96 320.66 218.05C321.09 219.76 321.77 221.39 322.64 222.92C347.6 222.07 369.7 209.19 382.74 189.24C378.53 190.42 374.08 190.89 369.58 190.52C365.28 190.16 361.37 189.06 357.58 187.99C354.67 187.17 351.91 186.39 349.25 186.05C348.22 185.92 347.17 185.85 346.12 185.85M336.29 235.27C336.43 235.34 336.57 235.41 336.71 235.48C343.91 239.03 352.76 239.63 360.38 237.08C371.08 233.49 380.48 223.42 385.53 210.13C385.95 209.02 386.35 207.89 386.71 206.76C373.78 221.46 356.14 231.64 336.29 235.27M350.54 252.44C343.67 252.44 336.81 250.89 330.61 247.83C324.74 244.93 319.65 241.08 315.68 236.64C275.83 234.76 242.34 206.94 233.43 167.7C232.59 164 234.91 160.31 238.62 159.46C242.33 158.62 246.02 160.94 246.86 164.65C253.72 194.83 277.78 217 307.44 221.94C307.39 221.74 307.34 221.55 307.29 221.35C304.19 208.79 307.61 194.98 316.24 185.33C324.86 175.67 338.19 170.72 351.03 172.39C354.68 172.86 358.06 173.82 361.32 174.73C364.62 175.66 367.74 176.54 370.73 176.79C380.3 177.59 390.28 171.83 393.43 163.69C394.73 160.33 398.42 158.54 401.87 159.59C405.32 160.64 407.37 164.19 406.57 167.7C406.22 169.26 405.83 170.8 405.4 172.31C404.86 186.4 403.67 201.16 398.41 215.02C391.82 232.39 379.55 245.18 364.76 250.14C360.16 251.68 355.35 252.44 350.54 252.44" id="a1YStRBIb"></path><path d="M400.81 141.6C397.49 141.6 394.57 139.19 394.02 135.81C391.69 121.43 385.22 108.12 375.33 97.33C375.05 97.02 374.84 96.8 374.63 96.58C374.61 96.56 374.51 96.45 374.33 96.26C341.9 63.84 323.89 45.83 320.29 42.23C320.2 42.14 319.79 42.16 319.73 42.22C314.29 47.66 270.79 91.16 265.35 96.6C265.15 96.82 264.94 97.03 264.75 97.26C254.78 108.13 248.31 121.43 245.98 135.81C245.37 139.57 241.83 142.11 238.08 141.51C234.32 140.9 231.77 137.36 232.38 133.61C235.14 116.56 242.8 100.8 254.53 88.02C254.73 87.79 255.01 87.49 255.29 87.19C255.33 87.15 255.62 86.84 255.65 86.8C255.71 86.73 255.78 86.66 255.85 86.6C261.26 81.19 304.56 37.9 309.97 32.49C312.64 29.81 316.2 28.33 320 28.33C323.8 28.33 327.36 29.81 330.04 32.5C335.45 37.91 378.74 81.19 384.15 86.6C384.22 86.66 384.28 86.73 384.34 86.8C384.38 86.83 384.65 87.13 384.69 87.17C384.98 87.48 385.27 87.79 385.55 88.1C397.2 100.8 404.86 116.56 407.62 133.61C408.23 137.36 405.68 140.9 401.92 141.51C401.55 141.57 401.18 141.6 400.81 141.6" id="a1er1mk9LE"></path><path d="M71.93 322.75L71.93 339.81L31.53 339.81C31.53 329.58 31.53 323.89 31.53 322.75C31.53 320 32.07 317.38 33.13 314.94C34.19 312.5 35.65 310.32 37.46 308.47C39.27 306.62 41.43 305.15 43.86 304.09C48.72 301.97 54.62 301.97 59.48 304.09C61.92 305.15 64.09 306.63 65.95 308.48C67.8 310.33 69.28 312.5 70.34 314.94C71.39 317.38 71.93 320 71.93 322.75M72.48 301.94C69.84 299.3 66.69 297.17 63.13 295.62C59.55 294.06 55.7 293.28 51.67 293.28C47.64 293.28 43.79 294.06 40.21 295.62C36.65 297.17 33.5 299.3 30.86 301.94C28.22 304.58 26.11 307.73 24.59 311.3C23.08 314.88 22.32 318.73 22.32 322.75C22.32 327.46 22.32 365.08 22.32 369.78C22.32 371.06 22.77 372.16 23.66 373.05C24.55 373.94 25.64 374.39 26.92 374.39C28.2 374.39 29.3 373.94 30.19 373.05C31.08 372.16 31.53 371.06 31.53 369.78C31.53 368.4 31.53 361.48 31.53 349.03L71.93 349.03C71.93 361.48 71.93 368.4 71.93 369.78C71.93 371.06 72.39 372.16 73.27 373.05C74.16 373.94 75.26 374.39 76.54 374.39C77.82 374.39 78.92 373.94 79.81 373.05C80.7 372.16 81.15 371.06 81.15 369.78C81.15 365.08 81.15 327.46 81.15 322.75C81.15 318.72 80.36 314.87 78.8 311.3C77.25 307.73 75.12 304.58 72.48 301.94" id="aqrtDIPz1"></path><path d="M119.63 322.43C122.54 322.43 125.32 322.99 127.87 324.09C130.44 325.2 132.71 326.74 134.65 328.67C136.57 330.6 138.11 332.87 139.22 335.44C140.32 337.99 140.88 340.76 140.88 343.66C140.72 346.74 140.05 349.63 138.91 352.23C137.77 354.83 136.23 357.11 134.34 359C132.45 360.89 130.22 362.39 127.69 363.45C122.58 365.61 116.44 365.56 111.32 363.39C108.72 362.29 106.42 360.75 104.49 358.82C102.56 356.89 101.02 354.59 99.92 351.99C98.82 349.4 98.26 346.6 98.26 343.68C98.26 340.76 98.82 337.99 99.92 335.44C101.02 332.87 102.56 330.6 104.49 328.67C106.42 326.74 108.72 325.2 111.32 324.09C113.92 322.99 116.72 322.43 119.63 322.43M141.11 321.94C138.34 319.25 135.06 317.13 131.38 315.62C127.69 314.11 123.74 313.34 119.63 313.34C115.36 313.34 111.32 314.15 107.62 315.75C103.93 317.34 100.68 319.55 97.95 322.32C95.23 325.09 93.04 328.34 91.45 331.98C89.86 335.63 89.05 339.56 89.05 343.68C89.05 347.88 89.88 351.88 91.52 355.57C93.15 359.26 95.38 362.53 98.14 365.3C100.91 368.06 104.15 370.29 107.79 371.92C111.45 373.56 115.35 374.39 119.38 374.39C119.39 374.39 119.41 374.39 119.41 374.39C124.12 374.22 128.46 373.01 132.34 370.78C135.55 368.92 138.41 366.77 140.88 364.35C140.88 367.12 140.88 389.29 140.88 392.07C140.88 393.35 141.33 394.45 142.21 395.33C143.1 396.22 144.21 396.67 145.49 396.67C146.76 396.67 147.86 396.22 148.75 395.33C149.64 394.45 150.09 393.35 150.09 392.07C150.09 387.23 150.09 348.52 150.09 343.68C150.09 339.33 149.28 335.25 147.69 331.55C146.09 327.86 143.88 324.62 141.11 321.94" id="d1uEgL0NSe"></path><path d="M216.77 312.97C215.49 312.97 214.39 313.43 213.5 314.31C212.61 315.2 212.16 316.3 212.16 317.58C212.16 320.22 212.16 341.29 212.16 343.93C212.16 346.84 211.6 349.61 210.5 352.17C209.4 354.74 207.86 357.02 205.93 358.94C204 360.87 201.72 362.41 199.16 363.52C194.05 365.72 187.77 365.72 182.67 363.52C180.11 362.41 177.83 360.87 175.9 358.94C173.97 357.02 172.43 354.74 171.33 352.17C170.23 349.62 169.67 346.85 169.67 343.93C169.67 341.29 169.67 320.22 169.67 317.58C169.67 316.3 169.22 315.2 168.33 314.31C167.44 313.43 166.34 312.97 165.06 312.97C163.78 312.97 162.68 313.43 161.79 314.31C160.9 315.2 160.45 316.3 160.45 317.58C160.45 320.22 160.45 341.29 160.45 343.93C160.45 348.12 161.26 352.12 162.86 355.82C164.44 359.5 166.63 362.75 169.36 365.48C172.09 368.21 175.34 370.4 179.03 371.98C182.72 373.58 186.72 374.39 190.91 374.39C195.11 374.39 199.11 373.58 202.8 371.98C206.49 370.4 209.74 368.21 212.47 365.48C215.19 362.75 217.38 359.5 218.97 355.82C220.57 352.12 221.37 348.12 221.37 343.93C221.37 341.29 221.37 320.22 221.37 317.58C221.37 316.3 220.93 315.2 220.04 314.31C219.15 313.43 218.05 312.97 216.77 312.97" id="kaLqCixhg"></path><path d="M282.71 343.89C282.55 346.98 281.88 349.84 280.74 352.41C279.6 354.97 278.04 357.23 276.11 359.12C274.18 361.01 271.92 362.51 269.4 363.58C264.29 365.73 258.12 365.68 253.09 363.52C250.53 362.41 248.25 360.87 246.32 358.94C244.39 357.01 242.85 354.73 241.75 352.17C240.65 349.62 240.09 346.85 240.09 343.93C240.09 341.01 240.65 338.21 241.75 335.62C242.85 333.02 244.39 330.72 246.32 328.79C248.25 326.86 250.53 325.32 253.09 324.22C255.65 323.12 258.42 322.56 261.33 322.56C264.25 322.56 267.05 323.12 269.64 324.22C272.25 325.32 274.54 326.86 276.48 328.79C278.4 330.72 279.94 333.02 281.04 335.62C282.15 338.22 282.71 341.01 282.71 343.89M282.82 322.32C280.06 319.55 276.81 317.32 273.17 315.69C269.52 314.05 265.61 313.22 261.58 313.22C261.58 313.22 261.55 313.22 261.55 313.22C257.2 313.39 253.1 314.3 249.38 315.93C245.66 317.57 242.39 319.77 239.66 322.5C236.93 325.23 234.76 328.46 233.22 332.11C231.66 335.75 230.87 339.73 230.87 343.93C230.87 348.29 231.68 352.37 233.28 356.06C234.87 359.75 237.08 362.98 239.86 365.67C242.62 368.35 245.88 370.48 249.52 371.99C253.17 373.5 257.15 374.27 261.33 374.27C265.89 374.27 270.18 373.13 274.1 370.9C277.35 369.05 280.23 366.86 282.71 364.38C282.71 364.94 282.71 369.35 282.71 369.9C282.71 371.19 283.16 372.29 284.05 373.17C284.93 374.06 286.03 374.51 287.31 374.51C288.59 374.51 289.69 374.06 290.58 373.17C291.47 372.29 291.92 371.19 291.92 369.9C291.92 367.31 291.92 346.53 291.92 343.93C291.92 339.73 291.09 335.73 289.45 332.03C287.82 328.35 285.59 325.08 282.82 322.32" id="cbuooPFua"></path><path d="M347.22 320.28C346.57 321.78 345.65 323.11 344.5 324.21C343.35 325.33 341.98 326.23 340.44 326.89C338.89 327.55 337.24 327.92 335.58 327.99C333.99 327.99 326.09 327.99 311.87 327.99L311.87 302.61C325.87 302.61 333.65 302.61 335.2 302.61C336.89 302.61 338.55 302.96 340.12 303.66C341.71 304.35 343.12 305.3 344.32 306.45C345.51 307.61 346.47 308.98 347.17 310.52C347.85 312.05 348.2 313.68 348.2 315.37C348.2 317.13 347.87 318.79 347.22 320.28M335.2 365.18L311.87 365.18L311.87 337.7C325.79 337.7 333.53 337.69 335.07 337.69C339.29 338.39 342.58 340.08 344.82 342.71C347.06 345.35 348.2 348.33 348.2 351.56C348.2 353.33 347.85 355.08 347.15 356.74C346.46 358.4 345.51 359.88 344.36 361.12C343.2 362.35 341.81 363.34 340.22 364.08C338.66 364.81 336.97 365.18 335.2 365.18M348.38 332.97C350.85 331.11 352.88 328.71 354.43 325.84C356.17 322.61 357.05 319.05 357.05 315.24C357.05 312.27 356.47 309.43 355.32 306.8C354.18 304.18 352.59 301.84 350.6 299.85C348.61 297.85 346.27 296.27 343.64 295.13C341.01 293.98 338.17 293.4 335.2 293.4C332.41 293.4 310.05 293.4 307.26 293.4C305.98 293.4 304.88 293.85 303.99 294.74C303.1 295.63 302.65 296.73 302.65 298.01C302.65 305.19 302.65 362.61 302.65 369.78C302.65 371.06 303.1 372.16 303.99 373.05C304.88 373.94 305.98 374.39 307.26 374.39C310.05 374.39 332.43 374.39 335.23 374.39C338.27 374.31 341.19 373.66 343.89 372.47C346.6 371.29 349 369.64 351.04 367.56C353.06 365.49 354.67 363.07 355.81 360.36C356.96 357.65 357.54 354.69 357.54 351.56C357.54 347.59 356.6 343.86 354.73 340.47C353.07 337.44 350.93 334.93 348.38 332.97" id="b2SB3apAkh"></path><path d="M418.62 343.89C418.47 346.98 417.81 349.84 416.66 352.41C415.52 354.97 413.96 357.23 412.03 359.12C410.09 361.01 407.84 362.51 405.32 363.58C400.21 365.73 394.04 365.68 389.01 363.52C386.45 362.41 384.17 360.87 382.24 358.94C380.31 357.01 378.77 354.73 377.67 352.17C376.57 349.62 376.01 346.85 376.01 343.93C376.01 341.01 376.57 338.21 377.67 335.62C378.77 333.02 380.31 330.72 382.24 328.79C384.17 326.86 386.45 325.32 389.01 324.22C391.57 323.12 394.34 322.56 397.25 322.56C400.17 322.56 402.97 323.12 405.56 324.22C408.17 325.32 410.46 326.86 412.39 328.79C414.32 330.72 415.86 333.02 416.96 335.62C418.06 338.22 418.62 341.01 418.62 343.89M418.74 322.32C415.98 319.55 412.73 317.32 409.09 315.69C405.43 314.05 401.54 313.22 397.5 313.22C397.5 313.22 397.47 313.22 397.47 313.22C393.12 313.39 389.02 314.3 385.3 315.93C381.58 317.57 378.31 319.77 375.58 322.5C372.85 325.23 370.68 328.46 369.13 332.11C367.58 335.75 366.79 339.73 366.79 343.93C366.79 348.29 367.6 352.37 369.2 356.06C370.79 359.75 373 362.98 375.77 365.67C378.54 368.35 381.79 370.48 385.44 371.99C389.09 373.5 393.07 374.27 397.25 374.27C401.8 374.27 406.1 373.13 410.02 370.9C413.26 369.05 416.15 366.86 418.62 364.38C418.62 364.94 418.62 369.35 418.62 369.9C418.62 371.19 419.08 372.29 419.96 373.17C420.85 374.06 421.95 374.51 423.23 374.51C424.51 374.51 425.61 374.06 426.5 373.17C427.39 372.29 427.84 371.19 427.84 369.9C427.84 367.31 427.84 346.53 427.84 343.93C427.84 339.73 427.01 335.73 425.37 332.03C423.74 328.35 421.51 325.08 418.74 322.32" id="b6kwTsM9l"></path><path d="M482.02 345.09C480.48 343.55 478.64 342.32 476.54 341.42C474.44 340.51 472.2 340.06 469.89 340.06C468.45 340.06 456.93 340.06 455.49 340.06C453.06 340.06 451.02 339.21 449.27 337.46C447.53 335.71 446.67 333.68 446.67 331.24C446.67 328.82 447.53 326.79 449.27 325.04C451.03 323.28 453.07 322.39 455.49 322.31C458 322.31 478.09 322.31 480.6 322.31C481.88 322.31 482.98 321.86 483.87 320.97C484.76 320.08 485.21 318.98 485.21 317.7C485.21 316.43 484.76 315.33 483.87 314.44C482.98 313.55 481.88 313.1 480.6 313.1C478.09 313.1 458 313.1 455.49 313.1C453.01 313.1 450.65 313.57 448.46 314.51C446.28 315.46 444.36 316.76 442.74 318.38C441.11 320 439.82 321.95 438.88 324.17C437.94 326.39 437.46 328.77 437.46 331.24C437.46 333.73 437.94 336.09 438.88 338.27C439.82 340.45 441.12 342.38 442.74 343.99C444.36 345.62 446.29 346.92 448.46 347.86C450.64 348.8 453.01 349.28 455.49 349.28C456.93 349.28 468.45 349.28 469.89 349.28C472.07 349.28 473.91 350.05 475.49 351.63C477.07 353.21 477.84 355.04 477.84 357.23C477.84 359.41 477.07 361.24 475.49 362.82C473.91 364.41 472.07 365.18 469.89 365.18C467.23 365.18 445.96 365.18 443.3 365.18C442.02 365.18 440.92 365.62 440.03 366.51C439.14 367.4 438.69 368.5 438.69 369.78C438.69 371.06 439.14 372.16 440.03 373.05C440.92 373.94 442.02 374.39 443.3 374.39C445.96 374.39 467.23 374.39 469.89 374.39C472.2 374.39 474.44 373.93 476.54 373.03C478.64 372.14 480.48 370.9 482.02 369.35C483.57 367.81 484.8 365.97 485.7 363.88C486.6 361.77 487.06 359.54 487.06 357.23C487.06 354.91 486.6 352.68 485.7 350.57C484.8 348.48 483.57 346.63 482.02 345.09" id="e1uXL4K3vI"></path><path d="M548.41 358.55C547.35 357.78 546.18 357.46 544.96 357.61C543.74 357.75 542.73 358.28 541.97 359.13C540.08 361.02 537.85 362.51 535.33 363.57C530.29 365.7 524 365.72 518.9 363.52C516.33 362.41 514.05 360.87 512.12 358.94C510.19 357.01 508.66 354.73 507.55 352.17C506.45 349.62 505.89 346.85 505.89 343.93C505.89 342.46 505.89 335.13 505.89 321.94C521.75 321.94 530.55 321.94 532.31 321.94C533.83 321.94 535.06 321.49 535.99 320.62C536.94 319.73 537.41 318.62 537.41 317.33C537.41 316.05 536.94 314.94 535.99 314.05C535.06 313.17 533.83 312.73 532.31 312.73C530.55 312.73 521.75 312.73 505.89 312.73C505.89 303.75 505.89 298.76 505.89 297.76C505.89 296.48 505.44 295.38 504.56 294.49C503.67 293.6 502.56 293.15 501.29 293.15C500.01 293.15 498.91 293.6 498.02 294.49C497.13 295.38 496.68 296.48 496.68 297.76C496.68 302.38 496.68 339.31 496.68 343.93C496.68 348.12 497.49 352.12 499.08 355.82C500.67 359.5 502.86 362.75 505.59 365.48C508.32 368.21 511.57 370.4 515.25 371.98C518.95 373.58 522.95 374.39 527.14 374.39C531.42 374.39 535.5 373.56 539.28 371.92C543.05 370.29 546.37 367.97 549.23 364.91C549.91 363.84 550.15 362.7 549.96 361.53C549.76 360.38 549.28 359.41 548.41 358.55" id="cgYbzJBYl"></path><path d="M608.47 343.89C608.31 346.98 607.65 349.84 606.51 352.41C605.36 354.97 603.8 357.23 601.87 359.12C599.94 361.01 597.68 362.51 595.16 363.58C590.05 365.73 583.88 365.68 578.85 363.52C576.29 362.41 574.01 360.87 572.08 358.94C570.15 357.01 568.61 354.73 567.51 352.17C566.41 349.62 565.85 346.85 565.85 343.93C565.85 341.01 566.41 338.21 567.51 335.62C568.61 333.02 570.15 330.72 572.08 328.79C574.01 326.86 576.29 325.32 578.85 324.22C581.41 323.12 584.18 322.56 587.1 322.56C590.01 322.56 592.81 323.12 595.4 324.22C598.01 325.32 600.31 326.86 602.24 328.79C604.17 330.72 605.7 333.02 606.81 335.62C607.91 338.22 608.47 341.01 608.47 343.89M615.22 332.03C613.58 328.35 611.35 325.08 608.59 322.32C605.82 319.55 602.57 317.32 598.93 315.69C595.28 314.05 591.38 313.22 587.34 313.22C587.34 313.22 587.32 313.22 587.31 313.22C582.96 313.39 578.87 314.3 575.15 315.93C571.42 317.57 568.15 319.77 565.42 322.5C562.7 325.23 560.52 328.46 558.98 332.11C557.42 335.75 556.64 339.73 556.64 343.93C556.64 348.29 557.44 352.37 559.04 356.06C560.63 359.75 562.84 362.98 565.62 365.67C568.38 368.35 571.64 370.48 575.28 371.99C578.93 373.5 582.91 374.27 587.1 374.27C591.65 374.27 595.94 373.13 599.86 370.9C603.11 369.05 605.99 366.86 608.47 364.38C608.47 364.94 608.47 369.35 608.47 369.9C608.47 371.19 608.92 372.29 609.81 373.17C610.7 374.06 611.8 374.51 613.07 374.51C614.36 374.51 615.45 374.06 616.34 373.17C617.23 372.29 617.68 371.19 617.68 369.9C617.68 367.31 617.68 346.53 617.68 343.93C617.68 339.73 616.85 335.73 615.22 332.03" id="b3goCMGSGh"></path><path d="M463.84 320.21C462.99 320.21 462.14 319.89 461.49 319.24C460.05 317.8 448.52 306.27 447.08 304.83C445.78 303.53 445.78 301.42 447.08 300.12C448.38 298.82 450.48 298.82 451.78 300.12C452.59 300.93 456.61 304.94 463.84 312.18C471.08 304.94 475.09 300.93 475.9 300.12C477.2 298.82 479.3 298.82 480.6 300.12C481.91 301.42 481.91 303.53 480.6 304.83C479.16 306.27 467.63 317.8 466.19 319.24C465.54 319.89 464.69 320.21 463.84 320.21" id="b99uBS7Mc"></path></defs><g><g><g><use xlink:href="#h2z0Uf3B8g" opacity="1" fill="#292929" fill-opacity="1"></use><g><use xlink:href="#h2z0Uf3B8g" opacity="1" fill-opacity="0" stroke="#000000" stroke-width="1" stroke-opacity="0"></use></g></g><g><use xlink:href="#a4GXohTTIC" opacity="1" fill="#2b8e4f" fill-opacity="1"></use><g><use xlink:href="#a4GXohTTIC" opacity="1" fill-opacity="0" stroke="#000000" stroke-width="1" stroke-opacity="0"></use></g></g><g><use xlink:href="#be3szXTTe" opacity="1" fill="#5187c5" fill-opacity="1"></use><g><use xlink:href="#be3szXTTe" opacity="1" fill-opacity="0" stroke="#000000" stroke-width="1" stroke-opacity="0"></use></g></g><g><use xlink:href="#agqVN655F" opacity="1" fill="#5187c5" fill-opacity="1"></use><g><use xlink:href="#agqVN655F" opacity="1" fill-opacity="0" stroke="#000000" stroke-width="1" stroke-opacity="0"></use></g></g><g><use xlink:href="#fwf8BvC4C" opacity="1" fill="#5187c5" fill-opacity="1"></use><g><use xlink:href="#fwf8BvC4C" opacity="1" fill-opacity="0" stroke="#000000" stroke-width="1" stroke-opacity="0"></use></g></g><g><use xlink:href="#c18rT48B2H" opacity="1" fill="#5187c5" fill-opacity="1"></use><g><use xlink:href="#c18rT48B2H" opacity="1" fill-opacity="0" stroke="#000000" stroke-width="1" stroke-opacity="0"></use></g></g><g><use xlink:href="#a1ylChqcg7" opacity="1" fill="#5187c5" fill-opacity="1"></use><g><use xlink:href="#a1ylChqcg7" opacity="1" fill-opacity="0" stroke="#000000" stroke-width="1" stroke-opacity="0"></use></g></g><g><use xlink:href="#a6iDxyCFu9" opacity="1" fill="#2b8e4f" fill-opacity="1"></use><g><use xlink:href="#a6iDxyCFu9" opacity="1" fill-opacity="0" stroke="#000000" stroke-width="1" stroke-opacity="0"></use></g></g><g><use xlink:href="#a1VRJrKcU2" opacity="1" fill="#2b8e4f" fill-opacity="1"></use><g><use xlink:href="#a1VRJrKcU2" opacity="1" fill-opacity="0" stroke="#000000" stroke-width="1" stroke-opacity="0"></use></g></g><g><use xlink:href="#ao6J1fYzh" opacity="1" fill="#2b8e4f" fill-opacity="1"></use><g><use xlink:href="#ao6J1fYzh" opacity="1" fill-opacity="0" stroke="#000000" stroke-width="1" stroke-opacity="0"></use></g></g><g><use xlink:href="#d2h2Skrull" opacity="1" fill="#2b8e4f" fill-opacity="1"></use><g><use xlink:href="#d2h2Skrull" opacity="1" fill-opacity="0" stroke="#000000" stroke-width="1" stroke-opacity="0"></use></g></g><g><use xlink:href="#bhXMlCOlm" opacity="1" fill="#2b8e4f" fill-opacity="1"></use><g><use xlink:href="#bhXMlCOlm" opacity="1" fill-opacity="0" stroke="#000000" stroke-width="1" stroke-opacity="0"></use></g></g><g><use xlink:href="#a3C3y710" opacity="1" fill="#2b8e4f" fill-opacity="1"></use><g><use xlink:href="#a3C3y710" opacity="1" fill-opacity="0" stroke="#000000" stroke-width="1" stroke-opacity="0"></use></g></g><g><use xlink:href="#a1CblNMnz" opacity="1" fill="#2b8e4f" fill-opacity="1"></use><g><use xlink:href="#a1CblNMnz" opacity="1" fill-opacity="0" stroke="#000000" stroke-width="1" stroke-opacity="0"></use></g></g><g><use xlink:href="#f7Zk3mOhe" opacity="1" fill="#5187c5" fill-opacity="1"></use><g><use xlink:href="#f7Zk3mOhe" opacity="1" fill-opacity="0" stroke="#000000" stroke-width="1" stroke-opacity="0"></use></g></g><g><use xlink:href="#a2CYiGCsnW" opacity="1" fill="#5187c5" fill-opacity="1"></use><g><use xlink:href="#a2CYiGCsnW" opacity="1" fill-opacity="0" stroke="#000000" stroke-width="1" stroke-opacity="0"></use></g></g><g><use xlink:href="#b1xweekDyC" opacity="1" fill="#5187c5" fill-opacity="1"></use><g><use xlink:href="#b1xweekDyC" opacity="1" fill-opacity="0" stroke="#000000" stroke-width="1" stroke-opacity="0"></use></g></g><g><use xlink:href="#i8bMNwTzYE" opacity="1" fill="#5187c5" fill-opacity="1"></use><g><use xlink:href="#i8bMNwTzYE" opacity="1" fill-opacity="0" stroke="#000000" stroke-width="1" stroke-opacity="0"></use></g></g><g><use xlink:href="#e1D6gNNMU" opacity="1" fill="#5187c5" fill-opacity="1"></use><g><use xlink:href="#e1D6gNNMU" opacity="1" fill-opacity="0" stroke="#000000" stroke-width="1" stroke-opacity="0"></use></g></g><g><use xlink:href="#a3d8Xmpc2R" opacity="1" fill="#2b8e4f" fill-opacity="1"></use><g><use xlink:href="#a3d8Xmpc2R" opacity="1" fill-opacity="0" stroke="#000000" stroke-width="1" stroke-opacity="0"></use></g></g><g><use xlink:href="#fKXqZR7WZ" opacity="1" fill="#2b8e4f" fill-opacity="1"></use><g><use xlink:href="#fKXqZR7WZ" opacity="1" fill-opacity="0" stroke="#000000" stroke-width="1" stroke-opacity="0"></use></g></g><g><use xlink:href="#eXml2FxYh" opacity="1" fill="#2b8e4f" fill-opacity="1"></use><g><use xlink:href="#eXml2FxYh" opacity="1" fill-opacity="0" stroke="#000000" stroke-width="1" stroke-opacity="0"></use></g></g><g><use xlink:href="#a18b97Pasg" opacity="1" fill="#2b8e4f" fill-opacity="1"></use><g><use xlink:href="#a18b97Pasg" opacity="1" fill-opacity="0" stroke="#000000" stroke-width="1" stroke-opacity="0"></use></g></g><g><use xlink:href="#c4abRaivkT" opacity="1" fill="#2b8e4f" fill-opacity="1"></use><g><use xlink:href="#c4abRaivkT" opacity="1" fill-opacity="0" stroke="#000000" stroke-width="1" stroke-opacity="0"></use></g></g><g><use xlink:href="#d2v2XTjWqu" opacity="1" fill="#2b8e4f" fill-opacity="1"></use><g><use xlink:href="#d2v2XTjWqu" opacity="1" fill-opacity="0" stroke="#000000" stroke-width="1" stroke-opacity="0"></use></g></g><g><use xlink:href="#a1YStRBIb" opacity="1" fill="#2b8e4f" fill-opacity="1"></use><g><use xlink:href="#a1YStRBIb" opacity="1" fill-opacity="0" stroke="#000000" stroke-width="1" stroke-opacity="0"></use></g></g><g><use xlink:href="#a1er1mk9LE" opacity="1" fill="#5187c5" fill-opacity="1"></use><g><use xlink:href="#a1er1mk9LE" opacity="1" fill-opacity="0" stroke="#000000" stroke-width="1" stroke-opacity="0"></use></g></g><g><use xlink:href="#aqrtDIPz1" opacity="1" fill="#5187c5" fill-opacity="1"></use><g><use xlink:href="#aqrtDIPz1" opacity="1" fill-opacity="0" stroke="#000000" stroke-width="1" stroke-opacity="0"></use></g></g><g><use xlink:href="#d1uEgL0NSe" opacity="1" fill="#5187c5" fill-opacity="1"></use><g><use xlink:href="#d1uEgL0NSe" opacity="1" fill-opacity="0" stroke="#000000" stroke-width="1" stroke-opacity="0"></use></g></g><g><use xlink:href="#kaLqCixhg" opacity="1" fill="#5187c5" fill-opacity="1"></use><g><use xlink:href="#kaLqCixhg" opacity="1" fill-opacity="0" stroke="#000000" stroke-width="1" stroke-opacity="0"></use></g></g><g><use xlink:href="#cbuooPFua" opacity="1" fill="#5187c5" fill-opacity="1"></use><g><use xlink:href="#cbuooPFua" opacity="1" fill-opacity="0" stroke="#000000" stroke-width="1" stroke-opacity="0"></use></g></g><g><use xlink:href="#b2SB3apAkh" opacity="1" fill="#2b8e4f" fill-opacity="1"></use><g><use xlink:href="#b2SB3apAkh" opacity="1" fill-opacity="0" stroke="#000000" stroke-width="1" stroke-opacity="0"></use></g></g><g><use xlink:href="#b6kwTsM9l" opacity="1" fill="#2b8e4f" fill-opacity="1"></use><g><use xlink:href="#b6kwTsM9l" opacity="1" fill-opacity="0" stroke="#000000" stroke-width="1" stroke-opacity="0"></use></g></g><g><use xlink:href="#e1uXL4K3vI" opacity="1" fill="#2b8e4f" fill-opacity="1"></use><g><use xlink:href="#e1uXL4K3vI" opacity="1" fill-opacity="0" stroke="#000000" stroke-width="1" stroke-opacity="0"></use></g></g><g><use xlink:href="#cgYbzJBYl" opacity="1" fill="#2b8e4f" fill-opacity="1"></use><g><use xlink:href="#cgYbzJBYl" opacity="1" fill-opacity="0" stroke="#000000" stroke-width="1" stroke-opacity="0"></use></g></g><g><use xlink:href="#b3goCMGSGh" opacity="1" fill="#2b8e4f" fill-opacity="1"></use><g><use xlink:href="#b3goCMGSGh" opacity="1" fill-opacity="0" stroke="#000000" stroke-width="1" stroke-opacity="0"></use></g></g><g><use xlink:href="#b99uBS7Mc" opacity="1" fill="#2b8e4f" fill-opacity="1"></use><g><use xlink:href="#b99uBS7Mc" opacity="1" fill-opacity="0" stroke="#000000" stroke-width="1" stroke-opacity="0"></use></g></g></g></g></svg>